<svg xmlns="http://www.w3.org/2000/svg" viewBox="0 0 1200 500">
  <rect fill="#1e293b" width="1200" height="500"/>
  
  <!-- Title -->
  <rect fill="#0f172a" x="20" y="20" width="1160" height="60" rx="8"/>
  <text x="40" y="50" fill="white" font-family="Arial" font-size="16" font-weight="bold">Data Preview</text>
  <text x="40" y="68" fill="#64748b" font-family="Arial" font-size="11">Click cells to edit • 10 records</text>
  
  <!-- Table header -->
  <rect fill="#1e293b" x="20" y="95" width="1160" height="35" rx="6"/>
  <text x="40" y="118" fill="#64748b" font-family="Arial" font-size="11">#</text>
  <text x="80" y="118" fill="#64748b" font-family="Arial" font-size="11">Event Type</text>
  <text x="220" y="118" fill="#64748b" font-family="Arial" font-size="11">Source Type</text>
  <text x="360" y="118" fill="#64748b" font-family="Arial" font-size="11">Device ID</text>
  <text x="520" y="118" fill="#64748b" font-family="Arial" font-size="11">Occur Date</text>
  <text x="680" y="118" fill="#64748b" font-family="Arial" font-size="11">Location</text>
  <text x="840" y="118" fill="#64748b" font-family="Arial" font-size="11">Lane Code</text>
  <text x="1000" y="118" fill="#64748b" font-family="Arial" font-size="11">Image Path</text>
  <text x="1100" y="118" fill="#64748b" font-family="Arial" font-size="11">Confidence</text>
  
  <!-- Row 1 -->
  <rect fill="#0f172a" x="20" y="135" width="1160" height="40" rx="4"/>
  <text x="40" y="160" fill="#64748b" font-family="Arial" font-size="11">1</text>
  <rect fill="#1e293b" x="75" y="142" width="130" height="26" rx="4" stroke="#3b82f6" stroke-width="1"/>
  <text x="85" y="160" fill="#60a5fa" font-family="Arial" font-size="10">PPE Detection</text>
  <rect fill="#1e293b" x="215" y="142" width="130" height="26" rx="4"/>
  <text x="225" y="160" fill="#cbd5e1" font-family="Arial" font-size="10">1 - Camera</text>
  <rect fill="#1e293b" x="355" y="142" width="150" height="26" rx="4" stroke="#3b82f6" stroke-width="1"/>
  <text x="365" y="160" fill="#60a5fa" font-family="Arial" font-size="9">uuid-abc-123</text>
  <rect fill="#1e293b" x="515" y="142" width="150" height="26" rx="4" stroke="#3b82f6" stroke-width="1"/>
  <text x="525" y="160" fill="#60a5fa" font-family="Arial" font-size="9">2024-03-01 10:00</text>
  <rect fill="#1e293b" x="675" y="142" width="150" height="26" rx="4" stroke="#3b82f6" stroke-width="1"/>
  <text x="685" y="160" fill="#60a5fa" font-family="Arial" font-size="10">Zone A</text>
  <rect fill="#1e293b" x="835" y="142" width="150" height="26" rx="4"/>
  <text x="845" y="160" fill="#cbd5e1" font-family="Arial" font-size="10">LANE-001</text>
  <rect fill="#1e293b" x="995" y="142" width="90" height="26" rx="4"/>
  <text x="1005" y="160" fill="#9ca3af" font-family="Arial" font-size="10">-</text>
  <rect fill="#1e293b" x="1095" y="142" width="70" height="26" rx="4" stroke="#3b82f6" stroke-width="1"/>
  <text x="1105" y="160" fill="#60a5fa" font-family="Arial" font-size="10">0.95</text>
  
  <!-- Row 2 -->
  <rect fill="#1e293b" x="20" y="180" width="1160" height="40" rx="4"/>
  <text x="40" y="205" fill="#64748b" font-family="Arial" font-size="11">2</text>
  <rect fill="#1e293b" x="75" y="187" width="130" height="26" rx="4" stroke="#3b82f6" stroke-width="1"/>
  <text x="85" y="205" fill="#60a5fa" font-family="Arial" font-size="10">Restricted Area</text>
  <rect fill="#1e293b" x="215" y="187" width="130" height="26" rx="4"/>
  <text x="225" y="205" fill="#cbd5e1" font-family="Arial" font-size="10">1 - Camera</text>
  <rect fill="#1e293b" x="355" y="187" width="150" height="26" rx="4" stroke="#3b82f6" stroke-width="1"/>
  <text x="365" y="205" fill="#60a5fa" font-family="Arial" font-size="9">uuid-def-456</text>
  <rect fill="#1e293b" x="515" y="187" width="150" height="26" rx="4" stroke="#3b82f6" stroke-width="1"/>
  <text x="525" y="205" fill="#60a5fa" font-family="Arial" font-size="9">2024-03-01 10:05</text>
  <rect fill="#1e293b" x="675" y="187" width="150" height="26" rx="4" stroke="#3b82f6" stroke-width="1"/>
  <text x="685" y="205" fill="#60a5fa" font-family="Arial" font-size="10">Zone B</text>
  <rect fill="#1e293b" x="835" y="187" width="150" height="26" rx="4"/>
  <text x="845" y="205" fill="#cbd5e1" font-family="Arial" font-size="10">LANE-001</text>
  <rect fill="#1e293b" x="995" y="187" width="90" height="26" rx="4"/>
  <text x="1005" y="205" fill="#9ca3af" font-family="Arial" font-size="10">-</text>
  <rect fill="#1e293b" x="1095" y="187" width="70" height="26" rx="4" stroke="#3b82f6" stroke-width="1"/>
  <text x="1105" y="205" fill="#60a5fa" font-family="Arial" font-size="10">0.87</text>
  
  <!-- Row 3 -->
  <rect fill="#0f172a" x="20" y="225" width="1160" height="40" rx="4"/>
  <text x="40" y="250" fill="#64748b" font-family="Arial" font-size="11">3</text>
  <rect fill="#1e293b" x="75" y="232" width="130" height="26" rx="4" stroke="#3b82f6" stroke-width="1"/>
  <text x="85" y="250" fill="#60a5fa" font-family="Arial" font-size="10">Abnormal Presence</text>
  
  <!-- Edit annotation -->
  <rect fill="none" stroke="#f59e0b" stroke-width="2" x="70" y="135" width="140" height="45" rx="4"/>
  <path d="M 210 155 L 240 155 L 240 180" stroke="#f59e0b" stroke-width="2" fill="none"/>
  <rect fill="#f59e0b" x="200" y="180" width="150" height="35" rx="4"/>
  <text x="210" y="198" fill="#1e293b" font-family="Arial" font-size="10" font-weight="bold">Click để sửa</text>
  <text x="210" y="210" fill="#1e293b" font-family="Arial" font-size="8">(chỉ Auto fields)</text>
  
  <!-- Legend -->
  <rect fill="#334155" x="20" y="280" width="1160" height="40" rx="6"/>
  <text x="40" y="305" fill="#94a3b8" font-family="Arial" font-size="11">Chú thích: </text>
  <rect fill="#3b82f6" x="110" y="292" width="15" height="15" rx="2"/>
  <text x="130" y="303" fill="#94a3b8" font-family="Arial" font-size="10">Editable</text>
  <rect fill="#334155" x="210" y="292" width="15" height="15" rx="2"/>
  <text x="230" y="303" fill="#94a3b8" font-family="Arial" font-size="10">Fixed/NULL (disabled)</text>
</svg>
